<?xml version="1.0" encoding="UTF-8" standalone="no"?>
<!-- Generator: Adobe Illustrator 15.0.0, SVG Export Plug-In . SVG Version: 6.00 Build 0)  -->

<svg
   xmlns:dc="http://purl.org/dc/elements/1.1/"
   xmlns:cc="http://creativecommons.org/ns#"
   xmlns:rdf="http://www.w3.org/1999/02/22-rdf-syntax-ns#"
   xmlns:svg="http://www.w3.org/2000/svg"
   xmlns="http://www.w3.org/2000/svg"
   xmlns:sodipodi="http://sodipodi.sourceforge.net/DTD/sodipodi-0.dtd"
   xmlns:inkscape="http://www.inkscape.org/namespaces/inkscape"
   version="1.1"
   x="0px"
   y="0px"
   width="40"
   height="40"
   viewBox="0 0 40 40"
   enable-background="new 0 0 30 30"
   xml:space="preserve"
   id="svg2"
   inkscape:version="0.48.2 r9819"
   sodipodi:docname="me.svg"
   inkscape:export-filename="C:\Users\Stephan\Desktop\icons\me.png"
   inkscape:export-xdpi="90"
   inkscape:export-ydpi="90"><metadata
   id="metadata19"><rdf:RDF><cc:Work
       rdf:about=""><dc:format>image/svg+xml</dc:format><dc:type
         rdf:resource="http://purl.org/dc/dcmitype/StillImage" /><dc:title /></cc:Work></rdf:RDF></metadata><defs
   id="defs17" /><sodipodi:namedview
   pagecolor="#0000ff"
   bordercolor="#666666"
   borderopacity="1"
   objecttolerance="10"
   gridtolerance="10"
   guidetolerance="10"
   inkscape:pageopacity="0"
   inkscape:pageshadow="2"
   inkscape:window-width="2560"
   inkscape:window-height="1388"
   id="namedview15"
   showgrid="true"
   inkscape:snap-bbox="true"
   inkscape:snap-global="true"
   inkscape:zoom="11.313709"
   inkscape:cx="-11.587766"
   inkscape:cy="36.882196"
   inkscape:window-x="-8"
   inkscape:window-y="-8"
   inkscape:window-maximized="1"
   inkscape:current-layer="svg2"><inkscape:grid
     type="xygrid"
     id="grid3002"
     empspacing="5"
     visible="false"
     enabled="true"
     snapvisiblegridlinesonly="true" /></sodipodi:namedview>


<rect
   style="opacity:0.75;fill:#000000;fill-opacity:1;stroke:none"
   id="rect3780"
   width="0"
   height="0"
   x="0"
   y="10" /><g
   id="g3755"
   transform="matrix(1.1111111,0,0,1.1111111,2.7588354e-8,-1.3613336)"><path
     sodipodi:nodetypes="cccccccccccccccc"
     inkscape:connector-curvature="0"
     id="path3773-1"
     d="m 17.406129,6.2189338 c -1.068784,0.011485 -2.197989,0.2065644 -3.085657,0.7813269 -0.328051,0.2444563 -0.63263,0.5250419 -0.914876,0.7745695 -0.23774,0.2052305 -0.461318,0.4509995 -0.669234,0.7066592 -0.133986,0.2146231 -0.29558,0.4461163 -0.425808,0.6700842 -0.964399,1.7079294 -0.923351,4.1404224 -0.616377,5.9857734 0.366577,2.146919 0.05909,2.138773 1.166125,4.069867 0.755812,1.052932 1.574808,2.102891 3.964975,2.856755 0.753978,0.122572 1.368867,0.164622 2.331825,-0.0285 2.48488,-0.833361 3.448646,-2.237633 3.941056,-2.828267 0.870906,-1.504757 0.823449,-2.426049 1.263127,-4.069861 0.231809,-2.545519 0.191336,-3.22387 -0.260774,-4.678217 C 23.676664,8.8513284 22.402599,7.4409482 20.706713,6.7944106 19.670801,6.3883616 18.532919,6.2056074 17.406129,6.2189338 z m -4.037714,1.5986843 c 0.0076,-0.031902 0.01569,0.00551 0,0 z"
     style="fill:#ffffff;fill-opacity:1;stroke:none;display:inline" /><path
     id="path3829"
     d="m 14.663423,19.208355 a 0.40678493,0.4064805 0 0 0 -0.139024,0.06946 0.40678493,0.4064805 0 0 0 -0.17378,0.3473 l 0,2.431097 c 0,0.871276 -0.397787,1.499291 -1.112191,2.049068 -0.714406,0.549778 -1.75277,0.997742 -2.884747,1.354469 -2.2639514,0.713453 -4.9008338,1.087241 -6.3951002,1.944879 a 0.40678493,0.4064805 0 0 0 -0.2085359,0.347299 l 0,4.063406 a 0.40678493,0.4064805 0 0 0 0.104268,0.27784 0.40678493,0.4064805 0 0 0 0.3128038,0.13892 l 27.6657593,0 a 0.40678493,0.4064805 0 0 0 0.278048,-0.10419 0.40678493,0.4064805 0 0 0 0.139024,-0.31257 l 0,-4.063406 A 0.40678493,0.4064805 0 0 0 32.041412,27.404628 C 30.419026,26.450541 27.771698,26.073071 25.542044,25.390289 24.427217,25.048898 23.417327,24.639591 22.72681,24.10528 22.036292,23.57097 21.649374,22.945763 21.649374,22.056212 l 0,-2.431097 a 0.40678493,0.4064805 0 0 0 -0.104268,-0.27784 0.40678493,0.4064805 0 0 0 -0.278048,-0.13892 l -6.534123,0 a 0.40678493,0.4064805 0 0 0 -0.06951,0 z"
     style="opacity:0.5;fill:#ffffff;fill-opacity:1;stroke:none"
     inkscape:connector-curvature="0" /></g></svg>