<?xml version="1.0" encoding="UTF-8" standalone="no"?>
<!-- Generator: Adobe Illustrator 15.0.0, SVG Export Plug-In . SVG Version: 6.00 Build 0)  -->

<svg
   xmlns:dc="http://purl.org/dc/elements/1.1/"
   xmlns:cc="http://creativecommons.org/ns#"
   xmlns:rdf="http://www.w3.org/1999/02/22-rdf-syntax-ns#"
   xmlns:svg="http://www.w3.org/2000/svg"
   xmlns="http://www.w3.org/2000/svg"
   xmlns:sodipodi="http://sodipodi.sourceforge.net/DTD/sodipodi-0.dtd"
   xmlns:inkscape="http://www.inkscape.org/namespaces/inkscape"
   version="1.1"
   x="0px"
   y="0px"
   width="40"
   height="40"
   viewBox="0 0 40 40"
   enable-background="new 0 0 30 30"
   xml:space="preserve"
   id="svg2"
   inkscape:version="0.48.2 r9819"
   sodipodi:docname="search.svg"
   inkscape:export-filename="C:\Users\Stephan\Desktop\icons\home.png"
   inkscape:export-xdpi="90"
   inkscape:export-ydpi="90"><metadata
   id="metadata19"><rdf:RDF><cc:Work
       rdf:about=""><dc:format>image/svg+xml</dc:format><dc:type
         rdf:resource="http://purl.org/dc/dcmitype/StillImage" /><dc:title /></cc:Work></rdf:RDF></metadata><defs
   id="defs17" /><sodipodi:namedview
   pagecolor="#0000ff"
   bordercolor="#666666"
   borderopacity="1"
   objecttolerance="10"
   gridtolerance="10"
   guidetolerance="10"
   inkscape:pageopacity="0"
   inkscape:pageshadow="2"
   inkscape:window-width="2560"
   inkscape:window-height="1388"
   id="namedview15"
   showgrid="true"
   inkscape:snap-bbox="true"
   inkscape:snap-global="true"
   inkscape:zoom="11.313709"
   inkscape:cx="-30.925101"
   inkscape:cy="41.695111"
   inkscape:window-x="-8"
   inkscape:window-y="-8"
   inkscape:window-maximized="1"
   inkscape:current-layer="svg2"><inkscape:grid
     type="xygrid"
     id="grid3002"
     empspacing="5"
     visible="true"
     enabled="true"
     snapvisiblegridlinesonly="true" /></sodipodi:namedview>


<rect
   style="opacity:0.75;fill:#000000;fill-opacity:1;stroke:none"
   id="rect3780"
   width="0"
   height="0"
   x="0"
   y="10" /><g
   id="g3756"
   transform="matrix(1.1320755,0,0,1.1320755,-0.37735901,-0.37736313)"><g
     transform="matrix(0.72603715,0,0,0.72603715,3.9358642,-730.9886)"
     id="g3773"><path
       style="opacity:0.5;fill:#ffffff;fill-opacity:1;stroke:none"
       d="m 17,1013.3622 c -8.836556,0 -16,7.1634 -16,16 0,8.8366 7.163444,16 16,16 8.836556,0 16,-7.1634 16,-16 0,-8.8366 -7.163444,-16 -16,-16 z m 0,6.5 c 5.246705,0 9.5,4.2533 9.5,9.5 0,5.2467 -4.253295,9.5 -9.5,9.5 -5.246705,0 -9.5,-4.2533 -9.5,-9.5 0,-5.2467 4.253295,-9.5 9.5,-9.5 z"
       id="path3766"
       inkscape:connector-curvature="0" /><rect
       style="fill:#ffffff;fill-opacity:1;stroke:none"
       id="rect3771"
       width="6"
       height="14.999983"
       x="-718.67657"
       y="752.61774"
       ry="2.6785684"
       transform="matrix(0.70710678,-0.70710678,0.70710678,0.70710678,0,0)" /></g></g></svg>